<svg width="260" height="189" viewBox="0 0 260 189" fill="none" xmlns="http://www.w3.org/2000/svg">
<g clip-path="url(#clip0_27_28)">
<path d="M129.443 134.686C142.836 134.686 153.693 123.812 153.693 110.398C153.693 96.9845 142.836 86.1106 129.443 86.1106C116.049 86.1106 105.192 96.9845 105.192 110.398C105.192 123.812 116.049 134.686 129.443 134.686Z" fill="#FD7900"/>
<path d="M155.965 93.2425C166.439 105.743 193.737 100.071 216.939 80.573C240.14 61.0752 250.458 35.1354 239.985 22.6347C229.511 10.134 202.213 15.8063 179.011 35.3041C155.81 54.8019 145.492 80.7418 155.965 93.2425Z" fill="#FD7900"/>
<path d="M168.259 169.374C183.17 179.831 201.077 179.984 208.256 169.716C215.435 159.448 209.167 142.648 194.256 132.191C179.345 121.735 161.437 121.581 154.259 131.849C147.08 142.117 153.348 158.917 168.259 169.374Z" fill="#FD7900"/>
<path d="M102.983 93.2422C92.51 105.743 65.2112 100.071 42.0099 80.5728C18.8086 61.075 8.49053 35.1351 18.9639 22.6344C29.4374 10.1338 56.7361 15.8061 79.9375 35.3039C103.139 54.8017 113.457 80.7416 102.983 93.2422Z" fill="#FD7900"/>
<path d="M90.6894 169.374C75.7784 179.831 57.8713 179.984 50.6926 169.716C43.5139 159.448 49.7822 142.648 64.6932 132.191C79.6042 121.735 97.5114 121.582 104.69 131.849C111.869 142.117 105.6 158.918 90.6894 169.374Z" fill="#FD7900"/>
</g>
<defs>
<clipPath id="clip0_27_28">
<rect width="259.2" height="188.308" fill="white"/>
</clipPath>
</defs>
</svg>
