<svg width="2692" height="3736" viewBox="0 0 2692 3736" fill="none" xmlns="http://www.w3.org/2000/svg">
<g clip-path="url(#clip0_19_19)">
<path d="M2690.37 1626.97C2616.77 1626.97 2543.9 1641.46 2475.9 1669.63C2407.91 1697.79 2346.13 1739.07 2294.09 1791.11C2242.05 1843.15 2200.77 1904.93 2172.6 1972.93C2144.44 2040.92 2129.94 2113.8 2129.94 2187.39C2129.94 2260.99 2144.44 2333.87 2172.6 2401.86C2200.77 2469.85 2242.05 2531.63 2294.09 2583.68C2346.13 2635.72 2407.91 2677 2475.9 2705.16C2543.9 2733.32 2616.77 2747.82 2690.37 2747.82L2690.37 2187.39V1626.97Z" fill="black" fill-opacity="0.2"/>
<ellipse cx="681.79" cy="1267.33" rx="681.79" ry="1267.33" transform="matrix(-0.642788 0.766044 0.766044 0.642788 575.492 -360)" fill="black" fill-opacity="0.2"/>
<ellipse cx="761.679" cy="523.7" rx="761.679" ry="523.7" transform="matrix(-0.819152 0.573576 0.573576 0.819152 1817.96 2253.39)" fill="black" fill-opacity="0.2"/>
</g>
<defs>
<clipPath id="clip0_19_19">
<rect width="2692" height="3736" fill="white"/>
</clipPath>
</defs>
</svg>
