<svg width="347" height="283" viewBox="0 0 347 283" fill="none" xmlns="http://www.w3.org/2000/svg">
<path d="M218.957 130.846C229.317 133.622 239.965 127.474 242.741 117.114C245.517 106.755 239.369 96.1066 229.009 93.3307C218.65 90.5549 208.002 96.7027 205.226 107.062C202.45 117.422 208.598 128.07 218.957 130.846Z" fill="#FD7900"/>
<path d="M248.049 104.337C253.564 116.162 275.852 117.439 297.833 107.19C319.814 96.9399 333.163 79.0448 327.649 67.2197C322.135 55.3947 299.846 54.1177 277.865 64.3674C255.884 74.6172 242.535 92.5124 248.049 104.337Z" fill="#FD7900"/>
<path d="M241.802 165.681C251.172 176.847 264.991 180.676 272.668 174.234C280.346 167.792 278.974 153.518 269.605 142.352C260.235 131.186 246.416 127.356 238.739 133.798C231.061 140.24 232.433 154.514 241.802 165.681Z" fill="#FD7900"/>
<path d="M207.068 93.3558C196.38 100.84 176.438 90.801 162.527 70.934C148.617 51.0671 146.004 28.895 156.692 21.4113C167.379 13.9276 187.321 23.9662 201.232 43.8331C215.143 63.7 217.755 85.8721 207.068 93.3558Z" fill="#FD7900"/>
<path d="M181.805 149.605C168.108 154.59 154.226 150.997 150.798 141.579C147.37 132.162 155.695 120.486 169.393 115.5C183.09 110.515 196.972 114.108 200.4 123.526C203.828 132.943 195.503 144.619 181.805 149.605Z" fill="#FD7900"/>
<path d="M89.7989 184.81C95.6066 181.457 97.5965 174.031 94.2434 168.223C90.8903 162.415 83.464 160.425 77.6563 163.778C71.8486 167.131 69.8587 174.558 73.2118 180.365C76.5649 186.173 83.9912 188.163 89.7989 184.81Z" fill="#FD7900"/>
<path d="M90.9405 160.226C98.6069 163.016 109.027 153.726 114.213 139.475C119.4 125.225 117.39 111.41 109.724 108.62C102.057 105.829 91.6375 115.12 86.4507 129.37C81.2639 143.621 83.274 157.435 90.9405 160.226Z" fill="#FD7900"/>
<path d="M115.302 190.111C124.381 190.905 132.185 186.489 132.731 180.246C133.277 174.003 126.359 168.298 117.28 167.504C108.2 166.709 100.396 171.126 99.8503 177.369C99.3041 183.612 106.222 189.317 115.302 190.111Z" fill="#FD7900"/>
<path d="M67.9653 173.491C66.5486 181.526 53.2931 185.904 38.3584 183.271C23.4236 180.638 12.4651 171.989 13.8818 163.955C15.2985 155.92 28.5539 151.542 43.4887 154.175C58.4235 156.809 69.382 165.457 67.9653 173.491Z" fill="#FD7900"/>
<path d="M81.6665 209.532C77.8146 217.792 70.0878 222.341 64.4083 219.693C58.7287 217.045 57.2471 208.201 61.099 199.941C64.951 191.68 72.6777 187.131 78.3573 189.779C84.0368 192.428 85.5184 201.271 81.6665 209.532Z" fill="#FD7900"/>
<path d="M195.116 247.899C198.72 249.98 203.328 248.745 205.409 245.141C207.49 241.537 206.255 236.929 202.651 234.848C199.047 232.768 194.439 234.003 192.358 237.606C190.278 241.21 191.512 245.818 195.116 247.899Z" fill="#FD7900"/>
<path d="M208.682 240.885C209.561 245.87 217.786 248.587 227.054 246.953C236.321 245.319 243.121 239.953 242.242 234.967C241.363 229.982 233.138 227.265 223.87 228.899C214.603 230.533 207.803 235.899 208.682 240.885Z" fill="#FD7900"/>
<path d="M200.18 263.249C202.57 268.374 207.365 271.197 210.889 269.554C214.413 267.911 215.333 262.423 212.942 257.297C210.552 252.171 205.757 249.348 202.233 250.992C198.709 252.635 197.79 258.123 200.18 263.249Z" fill="#FD7900"/>
<path d="M194.425 232.653C189.668 234.385 183.202 228.62 179.984 219.777C176.765 210.934 178.012 202.362 182.77 200.631C187.527 198.899 193.992 204.664 197.211 213.507C200.429 222.35 199.182 230.922 194.425 232.653Z" fill="#FD7900"/>
<path d="M179.309 251.198C173.674 251.691 168.832 248.95 168.493 245.077C168.154 241.203 172.447 237.663 178.081 237.17C183.715 236.677 188.558 239.418 188.896 243.292C189.235 247.165 184.943 250.705 179.309 251.198Z" fill="#FD7900"/>
</svg>
