<svg width="745" height="516" viewBox="0 0 745 516" fill="none" xmlns="http://www.w3.org/2000/svg">
<path d="M3.86129 427.796C9.79635 437.974 22.8586 441.413 33.0366 435.478C43.2147 429.543 46.6543 416.481 40.7192 406.303C34.7842 396.125 21.7219 392.685 11.5439 398.62C1.36586 404.555 -2.07376 417.618 3.86129 427.796ZM682.539 22.6172L637.005 14.8709L653.063 58.1775L682.539 22.6172ZM615.209 47.5837L613.818 43.8332L615.209 47.5837ZM397.935 270.765L398.14 274.76L397.935 270.765ZM22.8859 421.005L50.1223 416.903L48.9311 408.993L21.6947 413.094L22.8859 421.005ZM60.3359 415.365L87.5723 411.264L86.3811 403.353L59.1447 407.455L60.3359 415.365ZM87.5723 411.264C96.4202 409.932 105.057 407.812 113.394 404.961L110.805 397.391C102.92 400.087 94.7509 402.093 86.3811 403.353L87.5723 411.264ZM122.721 401.415C139.126 394.536 154.162 384.749 167.092 372.533L161.598 366.718C149.367 378.273 135.145 387.531 119.628 394.037L122.721 401.415ZM174.109 365.439C180.091 358.969 185.526 351.93 190.325 344.378L183.574 340.087C179.033 347.23 173.893 353.889 168.235 360.008L174.109 365.439ZM190.325 344.378C195.398 336.397 201.211 329.033 207.647 322.355L201.886 316.804C195.082 323.865 188.936 331.651 183.574 340.087L190.325 344.378ZM215.228 315.059C229.231 302.563 245.619 293.006 263.39 286.972L260.818 279.397C242.03 285.776 224.706 295.879 209.901 309.09L215.228 315.059ZM273.473 283.967C282.455 281.655 291.727 280.221 301.171 279.737L300.761 271.747C290.778 272.26 280.975 273.775 271.479 276.22L273.473 283.967ZM301.171 279.737L342 277.641L341.59 269.652L300.761 271.747L301.171 279.737ZM357.311 276.855L398.14 274.76L397.73 266.77L356.901 268.866L357.311 276.855ZM398.14 274.76C411.971 274.05 425.313 271.359 437.871 266.951L435.221 259.403C423.377 263.56 410.788 266.1 397.73 266.77L398.14 274.76ZM451.947 261.141C476.532 249.407 497.281 230.792 511.604 207.619L504.799 203.412C491.283 225.279 471.7 242.849 448.501 253.921L451.947 261.141ZM518.901 194.253C524.641 182.246 528.757 169.272 530.958 155.599L523.06 154.328C520.982 167.236 517.097 179.477 511.683 190.803L518.901 194.253ZM530.958 155.599C532.556 145.67 535.242 136.081 538.901 126.97L531.478 123.988C527.599 133.645 524.753 143.807 523.06 154.328L530.958 155.599ZM543.489 116.797C552.43 98.9941 565.244 83.3931 580.971 71.1644L576.06 64.8489C559.394 77.8083 545.815 94.3402 536.34 113.207L543.489 116.797ZM590.059 64.6876C598.285 59.3278 607.17 54.8307 616.599 51.3341L613.818 43.8332C603.827 47.538 594.411 52.3038 585.692 57.9847L590.059 64.6876ZM616.599 51.3341L644.949 40.8219L642.167 33.321L613.818 43.8332L616.599 51.3341Z" fill="#FD7900"/>
<path d="M488.641 236.862C501.454 244.122 517.726 239.62 524.985 226.808C532.245 213.995 527.743 197.723 514.931 190.464C502.118 183.204 485.846 187.706 478.587 200.518C471.327 213.331 475.829 229.603 488.641 236.862Z" fill="#FD7900"/>
<path d="M536.445 211.653C539.699 229.27 568.884 238.649 601.631 232.601C634.379 226.552 658.289 207.368 655.035 189.75C651.781 172.133 622.596 162.754 589.848 168.802C557.101 174.851 533.191 194.035 536.445 211.653Z" fill="#FD7900"/>
<path d="M507 291.035C515.606 309.105 532.653 318.957 545.078 313.041C557.502 307.124 560.598 287.679 551.993 269.609C543.388 251.539 526.34 241.686 513.916 247.603C501.491 253.519 498.395 272.964 507 291.035Z" fill="#FD7900"/>
<path d="M485.758 182.934C468.974 189.197 445.928 168.982 434.286 137.782C422.643 106.582 426.811 76.2121 443.596 69.9486C460.381 63.685 483.426 83.9 495.069 115.1C506.711 146.3 502.543 176.67 485.758 182.934Z" fill="#FD7900"/>
<path d="M432.797 248.991C412.874 250.897 395.66 241.337 394.35 227.638C393.039 213.94 408.128 201.29 428.052 199.384C447.976 197.478 465.189 207.038 466.5 220.737C467.81 234.435 452.721 247.085 432.797 248.991Z" fill="#FD7900"/>
</svg>
