<svg width="368" height="369" viewBox="0 0 368 369" fill="none" xmlns="http://www.w3.org/2000/svg">
<path d="M184 249.333L107.333 172.667L128.8 150.433L168.666 190.3V65.3333H199.333V190.3L239.2 150.433L260.666 172.667L184 249.333ZM91.9997 310.667C83.5663 310.667 76.3469 307.664 70.3413 301.658C64.3358 295.653 61.333 288.433 61.333 280V234H91.9997V280H276V234H306.666V280C306.666 288.433 303.664 295.653 297.658 301.658C291.652 307.664 284.433 310.667 276 310.667H91.9997Z" fill="#FD7900"/>
<path d="M109.638 107.025C115.027 101.589 114.99 92.8135 109.554 87.424C104.118 82.0344 95.3426 82.0719 89.953 87.5077C84.5634 92.9435 84.6009 101.719 90.0368 107.109C95.4726 112.498 104.248 112.461 109.638 107.025Z" fill="#FD7900"/>
<path d="M103.516 79.6082C112.797 80.3802 121.483 67.0215 122.918 49.7708C124.353 32.5201 117.993 17.9098 108.713 17.1378C99.4325 16.3658 90.7459 29.7245 89.3109 46.9752C87.8759 64.2259 94.2359 78.8362 103.516 79.6082Z" fill="#FD7900"/>
<path d="M139.314 105.209C149.552 103.358 156.82 96.1521 155.548 89.113C154.276 82.0739 144.945 77.8676 134.707 79.718C124.469 81.5683 117.201 88.7746 118.473 95.8137C119.746 102.853 129.076 107.059 139.314 105.209Z" fill="#FD7900"/>
<path d="M82.1955 101.112C83.0468 110.386 69.7628 119.186 52.525 120.768C35.2872 122.351 20.6231 116.116 19.7718 106.842C18.9206 97.569 32.2045 88.7686 49.4423 87.1862C66.6801 85.6039 81.3442 91.8388 82.1955 101.112Z" fill="#FD7900"/>
<path d="M108.101 136.69C106.338 146.944 99.1944 154.273 92.1447 153.061C85.095 151.849 80.8091 142.554 82.5719 132.301C84.3347 122.048 91.4786 114.719 98.5283 115.931C105.578 117.143 109.864 126.437 108.101 136.69Z" fill="#FD7900"/>
<path d="M257.877 126.201C260.863 128.707 265.315 128.317 267.821 125.331C270.327 122.345 269.937 117.893 266.951 115.387C263.965 112.881 259.513 113.271 257.007 116.257C254.501 119.243 254.891 123.695 257.877 126.201Z" fill="#FD7900"/>
<path d="M271.532 121.937C271.532 126.679 278.678 130.524 287.494 130.524C296.309 130.524 303.455 126.679 303.455 121.937C303.455 117.195 296.309 113.35 287.494 113.35C278.678 113.35 271.532 117.195 271.532 121.937Z" fill="#FD7900"/>
<path d="M260.051 141.185C261.423 146.303 265.387 149.687 268.905 148.744C272.424 147.801 274.165 142.888 272.793 137.771C271.422 132.653 267.458 129.269 263.94 130.212C260.421 131.155 258.68 136.068 260.051 141.185Z" fill="#FD7900"/>
<path d="M259.719 112.025C255.048 112.848 250.022 106.478 248.491 97.7967C246.96 89.1154 249.505 81.4103 254.175 80.5868C258.846 79.7633 263.873 86.1333 265.403 94.8146C266.934 103.496 264.389 111.201 259.719 112.025Z" fill="#FD7900"/>
<path d="M242.757 126.673C237.479 126.212 233.458 122.896 233.775 119.267C234.093 115.638 238.629 113.071 243.906 113.532C249.184 113.994 253.206 117.31 252.888 120.939C252.571 124.568 248.035 127.135 242.757 126.673Z" fill="#FD7900"/>
</svg>
