<svg width="478" height="507" viewBox="0 0 478 507" fill="none" xmlns="http://www.w3.org/2000/svg">
<path d="M238.703 328.242C258.745 328.242 274.992 311.995 274.992 291.953C274.992 271.91 258.745 255.663 238.703 255.663C218.66 255.663 202.413 271.91 202.413 291.953C202.413 311.995 218.66 328.242 238.703 328.242Z" fill="#FD7900"/>
<path d="M278.394 266.319C294.066 284.997 334.917 276.522 369.636 247.389C404.356 218.256 419.796 179.498 404.123 160.82C388.45 142.142 347.6 150.617 312.88 179.75C278.161 208.883 262.721 247.641 278.394 266.319Z" fill="#FD7900"/>
<path d="M296.787 380.071C319.1 395.695 345.897 395.924 356.64 380.582C367.382 365.24 358.002 340.138 335.689 324.514C313.376 308.89 286.579 308.661 275.836 324.003C265.094 339.345 274.474 364.447 296.787 380.071Z" fill="#FD7900"/>
<path d="M199.107 266.319C183.434 284.997 142.584 276.522 107.865 247.389C73.1454 218.256 57.7052 179.497 73.3779 160.82C89.0506 142.142 129.901 150.617 164.62 179.75C199.34 208.883 214.78 247.641 199.107 266.319Z" fill="#FD7900"/>
<path d="M180.714 380.071C158.4 395.695 131.604 395.924 120.861 380.582C110.119 365.241 119.499 340.138 141.812 324.514C164.125 308.891 190.922 308.662 201.665 324.003C212.407 339.345 203.027 364.448 180.714 380.071Z" fill="#FD7900"/>
<path fill-rule="evenodd" clip-rule="evenodd" d="M278 32.1662C265.309 30.0833 252.281 29 239 29C107.004 29 0 136.004 0 268C0 399.996 107.004 507 239 507C370.996 507 478 399.996 478 268C478 224.954 466.62 184.566 446.704 149.681L435.778 154.753C455.002 188.085 466 226.758 466 268C466 393.369 364.369 495 239 495C113.631 495 12 393.369 12 268C12 142.631 113.631 41 239 41C252.298 41 265.329 42.1435 278 44.3375V32.1662Z" fill="#FD7900"/>
<rect x="368" width="30" height="120" fill="#FD7900"/>
<rect x="323" y="75" width="30" height="120" transform="rotate(-90 323 75)" fill="#FD7900"/>
</svg>
